<?xml version="1.0" encoding="utf-8"?>
<svg viewBox="101.6406 168.7603 39.9787 39.9996" width="39.979" height="40" xmlns="http://www.w3.org/2000/svg">
  <g fill-rule="evenodd" fill="none" stroke-width="1" stroke="none" id="Design" transform="matrix(1, 0, 0, 1, 157.56590270996094, 172.16061401367188)">
    <g fill="#0206A8" transform="translate(-150.000000, -20.000000)" id="Design---1.0-Landing-01">
      <g transform="translate(150.000000, 20.000000)" id="Logo">
        <path id="Apryse-Logo" d="M -51.64 26.974 L -47.432 28.102 L -24.44 28.102 L -38.222 36.063 C -40.134 37.167 -42.579 36.512 -43.682 34.599 L -45.002 32.312 L -47.642 32.312 C -49.85 32.312 -51.64 30.521 -51.64 28.312 L -51.64 26.974 Z M -24.44 28.102 L -28.189 34.599 C -29.293 36.512 -31.738 37.167 -33.65 36.063 L -33.811 35.97 L -24.44 28.102 Z M -24.44 5.097 L -16.483 18.887 C -15.379 20.8 -16.034 23.246 -17.946 24.35 L -20.232 25.671 L -20.232 28.312 C -20.232 30.521 -22.022 32.312 -24.229 32.312 L -25.567 32.312 L -24.44 28.102 L -24.44 5.097 Z M -55.295 18.725 L -47.432 28.102 L -53.926 24.35 C -55.838 23.246 -56.493 20.8 -55.389 18.887 L -55.295 18.725 Z M -38.222 -2.864 L -38.06 -2.771 L -47.432 5.097 L -47.432 28.102 L -55.389 14.312 C -56.493 12.399 -55.838 9.953 -53.926 8.849 L -51.64 7.528 L -51.64 4.887 C -51.64 2.678 -49.85 0.887 -47.642 0.887 L -46.304 0.887 L -47.432 5.097 L -43.682 -1.4 C -42.579 -3.313 -40.134 -3.968 -38.222 -2.864 Z M -24.44 5.097 L -17.946 8.849 C -16.034 9.953 -15.379 12.399 -16.483 14.312 L -16.576 14.474 L -24.44 5.097 Z M -28.189 -1.4 L -26.869 0.887 L -24.229 0.887 C -22.022 0.887 -20.232 2.678 -20.232 4.887 L -20.232 6.226 L -24.44 5.097 L -47.432 5.097 L -33.65 -2.864 C -31.738 -3.968 -29.293 -3.313 -28.189 -1.4 Z"/>
      </g>
    </g>
  </g>
</svg>